<svg width="160" height="43" viewBox="0 0 160 43" fill="none" xmlns="http://www.w3.org/2000/svg">
<path fill-rule="evenodd" clip-rule="evenodd" d="M20.783 10.402C21.1858 10.0558 21.7107 9.87173 22.2498 9.8874C22.8873 9.88572 23.4921 10.1596 23.8982 10.6338C24.2477 11.0446 24.6133 11.7835 24.3709 12.991C23.9848 14.9172 21.084 16.4991 20.9605 16.5653C20.8494 16.625 20.7143 16.625 20.6033 16.5653C20.4808 16.5002 17.5801 14.9183 17.1928 12.991C16.9504 11.7835 17.3164 11.0428 17.6659 10.6338C18.0725 10.1592 18.678 9.88529 19.3161 9.8874C19.8552 9.87173 20.3801 10.0558 20.783 10.402ZM16.5032 30.6686C17.3472 30.6686 18.1467 30.4785 18.8614 30.1389C17.7684 28.7777 17.1145 27.049 17.1145 25.1674C17.1145 23.2859 17.7684 21.5571 18.8614 20.1959C18.1467 19.8563 17.3472 19.6663 16.5032 19.6663C13.465 19.6663 11.0021 22.1292 11.0021 25.1674C11.0021 28.2056 13.465 30.6686 16.5032 30.6686ZM16.5032 33.1135C18.0786 33.1135 19.5468 32.6551 20.7819 31.8644C22.017 32.6551 23.4852 33.1135 25.0606 33.1135C29.4491 33.1135 33.0066 29.5559 33.0066 25.1674C33.0066 20.7789 29.4491 17.2213 25.0606 17.2213C23.4852 17.2213 22.017 17.6798 20.7819 18.4705C19.5468 17.6798 18.0786 17.2213 16.5032 17.2213C12.1147 17.2213 8.55713 20.7789 8.55713 25.1674C8.55713 29.5559 12.1147 33.1135 16.5032 33.1135ZM25.0606 19.6663C24.2166 19.6663 23.4171 19.8563 22.7024 20.1959C23.7954 21.5571 24.4493 23.2859 24.4493 25.1674C24.4493 27.049 23.7954 28.7777 22.7024 30.1389C23.4171 30.4785 24.2166 30.6686 25.0606 30.6686C28.0987 30.6686 30.5617 28.2056 30.5617 25.1674C30.5617 22.1292 28.0987 19.6663 25.0606 19.6663ZM22.0044 25.1674C22.0044 23.8574 21.5464 22.6543 20.7819 21.7094C20.0174 22.6543 19.5594 23.8574 19.5594 25.1674C19.5594 26.4775 20.0174 27.6806 20.7819 28.6254C21.5464 27.6806 22.0044 26.4775 22.0044 25.1674Z" fill="#7939CC"/>
<path d="M45.2846 30L41.8972 17.9975H44.2355L46.3981 26.8177H46.5094L48.8185 17.9975H50.9459L53.2608 26.8236H53.3663L55.5289 17.9975H57.8673L54.4798 30H52.3349L49.932 21.5783H49.8383L47.4295 30H45.2846ZM62.3477 30.1758C61.4451 30.1758 60.6657 29.9883 60.0093 29.6132C59.3568 29.2342 58.8548 28.6989 58.5031 28.0074C58.1515 27.3119 57.9757 26.4934 57.9757 25.5518C57.9757 24.6258 58.1515 23.8132 58.5031 23.1138C58.8587 22.4105 59.3549 21.8635 59.9917 21.4728C60.6286 21.0782 61.3768 20.8809 62.2363 20.8809C62.7911 20.8809 63.3147 20.9708 63.807 21.1505C64.3032 21.3263 64.7408 21.5998 65.1197 21.971C65.5026 22.3422 65.8035 22.8149 66.0223 23.3893C66.2411 23.9597 66.3505 24.6395 66.3505 25.4287V26.0793H58.972V24.6493H64.3168C64.3129 24.2429 64.225 23.8815 64.0531 23.5651C63.8812 23.2447 63.6409 22.9927 63.3323 22.8091C63.0275 22.6254 62.672 22.5336 62.2656 22.5336C61.8319 22.5336 61.451 22.6391 61.1228 22.8501C60.7946 23.0572 60.5387 23.3306 60.3551 23.6706C60.1754 24.0066 60.0835 24.3758 60.0796 24.7782V26.0265C60.0796 26.5501 60.1754 26.9994 60.3668 27.3745C60.5582 27.7456 60.8259 28.0308 61.1697 28.2301C61.5135 28.4255 61.9159 28.5231 62.377 28.5231C62.6856 28.5231 62.965 28.4802 63.215 28.3942C63.4651 28.3043 63.6819 28.1734 63.8656 28.0015C64.0492 27.8296 64.1879 27.6167 64.2817 27.3627L66.2626 27.5854C66.1375 28.109 65.8992 28.5661 65.5476 28.9568C65.1998 29.3436 64.7544 29.6445 64.2113 29.8593C63.6683 30.0703 63.047 30.1758 62.3477 30.1758ZM71.4858 30.1582C70.7786 30.1582 70.1457 29.9766 69.587 29.6132C69.0283 29.2498 68.5868 28.7224 68.2625 28.0308C67.9382 27.3393 67.7761 26.4993 67.7761 25.5108C67.7761 24.5106 67.9401 23.6667 68.2683 22.979C68.6004 22.2875 69.0478 21.7659 69.6104 21.4142C70.173 21.0587 70.8001 20.8809 71.4917 20.8809C72.0191 20.8809 72.4528 20.9708 72.7927 21.1505C73.1326 21.3263 73.4022 21.5393 73.6015 21.7893C73.8007 22.0355 73.9551 22.2679 74.0645 22.4867H74.1524V17.9975H76.2798V30H74.1934V28.5817H74.0645C73.9551 28.8005 73.7968 29.033 73.5898 29.2791C73.3827 29.5214 73.1092 29.7285 72.7693 29.9004C72.4294 30.0723 72.0015 30.1582 71.4858 30.1582ZM72.0777 28.4176C72.527 28.4176 72.9099 28.2965 73.2264 28.0543C73.5429 27.8081 73.7832 27.4663 73.9473 27.0287C74.1113 26.5911 74.1934 26.0812 74.1934 25.4991C74.1934 24.9169 74.1113 24.411 73.9473 23.9812C73.7871 23.5514 73.5487 23.2173 73.2323 22.979C72.9197 22.7407 72.5349 22.6215 72.0777 22.6215C71.605 22.6215 71.2104 22.7446 70.8939 22.9907C70.5774 23.2369 70.3391 23.5768 70.1789 24.0105C70.0187 24.4442 69.9386 24.9404 69.9386 25.4991C69.9386 26.0617 70.0187 26.5637 70.1789 27.0052C70.343 27.4428 70.5833 27.7886 70.8997 28.0426C71.2201 28.2926 71.6128 28.4176 72.0777 28.4176ZM81.881 30.1582C81.1738 30.1582 80.5409 29.9766 79.9822 29.6132C79.4235 29.2498 78.982 28.7224 78.6577 28.0308C78.3334 27.3393 78.1713 26.4993 78.1713 25.5108C78.1713 24.5106 78.3354 23.6667 78.6636 22.979C78.9957 22.2875 79.443 21.7659 80.0056 21.4142C80.5683 21.0587 81.1953 20.8809 81.8869 20.8809C82.4143 20.8809 82.848 20.9708 83.1879 21.1505C83.5279 21.3263 83.7974 21.5393 83.9967 21.7893C84.196 22.0355 84.3503 22.2679 84.4597 22.4867H84.5476V17.9975H86.675V30H84.5886V28.5817H84.4597C84.3503 28.8005 84.1921 29.033 83.985 29.2791C83.7779 29.5214 83.5044 29.7285 83.1645 29.9004C82.8246 30.0723 82.3968 30.1582 81.881 30.1582ZM82.4729 28.4176C82.9223 28.4176 83.3052 28.2965 83.6216 28.0543C83.9381 27.8081 84.1784 27.4663 84.3425 27.0287C84.5066 26.5911 84.5886 26.0812 84.5886 25.4991C84.5886 24.9169 84.5066 24.411 84.3425 23.9812C84.1823 23.5514 83.944 23.2173 83.6275 22.979C83.3149 22.7407 82.9301 22.6215 82.4729 22.6215C82.0002 22.6215 81.6056 22.7446 81.2891 22.9907C80.9726 23.2369 80.7343 23.5768 80.5741 24.0105C80.4139 24.4442 80.3338 24.9404 80.3338 25.4991C80.3338 26.0617 80.4139 26.5637 80.5741 27.0052C80.7382 27.4428 80.9785 27.7886 81.295 28.0426C81.6153 28.2926 82.008 28.4176 82.4729 28.4176ZM88.9357 30V20.9981H91.0572V30H88.9357ZM90.0023 19.7205C89.6663 19.7205 89.3772 19.6092 89.135 19.3865C88.8927 19.1599 88.7716 18.8883 88.7716 18.5718C88.7716 18.2515 88.8927 17.9799 89.135 17.7572C89.3772 17.5306 89.6663 17.4173 90.0023 17.4173C90.3423 17.4173 90.6314 17.5306 90.8697 17.7572C91.1119 17.9799 91.2331 18.2515 91.2331 18.5718C91.2331 18.8883 91.1119 19.1599 90.8697 19.3865C90.6314 19.6092 90.3423 19.7205 90.0023 19.7205ZM95.3604 24.7255V30H93.2389V20.9981H95.2666V22.5277H95.3721C95.5792 22.0237 95.9093 21.6233 96.3625 21.3263C96.8197 21.0294 97.3842 20.8809 98.0563 20.8809C98.6775 20.8809 99.2186 21.0138 99.6796 21.2794C100.145 21.5451 100.504 21.93 100.758 22.434C101.016 22.938 101.143 23.5494 101.139 24.2683V30H99.0174V24.5965C99.0174 23.9948 98.8611 23.524 98.5485 23.1841C98.2399 22.8442 97.8121 22.6743 97.2651 22.6743C96.8939 22.6743 96.5638 22.7563 96.2746 22.9204C95.9894 23.0806 95.7648 23.3131 95.6007 23.6178C95.4405 23.9226 95.3604 24.2918 95.3604 24.7255ZM107.21 33.5632C106.449 33.5632 105.794 33.4597 105.247 33.2526C104.7 33.0495 104.261 32.776 103.929 32.4321C103.596 32.0883 103.366 31.7074 103.237 31.2893L105.148 30.8263C105.234 31.0022 105.359 31.176 105.523 31.3479C105.687 31.5238 105.907 31.6683 106.185 31.7816C106.466 31.8988 106.82 31.9574 107.246 31.9574C107.847 31.9574 108.345 31.8109 108.74 31.5179C109.135 31.2288 109.332 30.7521 109.332 30.0879V28.3825H109.227C109.117 28.6013 108.957 28.8259 108.746 29.0564C108.539 29.287 108.263 29.4804 107.92 29.6366C107.58 29.7929 107.152 29.8711 106.636 29.8711C105.945 29.8711 105.318 29.7089 104.755 29.3846C104.196 29.0564 103.751 28.5681 103.419 27.9195C103.091 27.267 102.926 26.4504 102.926 25.4698C102.926 24.4813 103.091 23.6471 103.419 22.9673C103.751 22.2836 104.198 21.7659 104.761 21.4142C105.323 21.0587 105.95 20.8809 106.642 20.8809C107.169 20.8809 107.603 20.9708 107.943 21.1505C108.287 21.3263 108.56 21.5393 108.764 21.7893C108.967 22.0355 109.121 22.2679 109.227 22.4867H109.344V20.9981H111.436V30.1465C111.436 30.9162 111.252 31.5531 110.885 32.0571C110.518 32.5611 110.016 32.9381 109.379 33.1882C108.742 33.4382 108.019 33.5632 107.21 33.5632ZM107.228 28.2067C107.677 28.2067 108.06 28.0973 108.377 27.8785C108.693 27.6597 108.934 27.3452 109.098 26.9349C109.262 26.5247 109.344 26.0324 109.344 25.458C109.344 24.8915 109.262 24.3953 109.098 23.9695C108.937 23.5436 108.699 23.2134 108.383 22.979C108.07 22.7407 107.685 22.6215 107.228 22.6215C106.755 22.6215 106.361 22.7446 106.044 22.9907C105.728 23.2369 105.489 23.5748 105.329 24.0046C105.169 24.4305 105.089 24.915 105.089 25.458C105.089 26.0089 105.169 26.4915 105.329 26.9056C105.493 27.3158 105.734 27.6362 106.05 27.8667C106.37 28.0934 106.763 28.2067 107.228 28.2067ZM112.339 19.8202V17.9975H121.915V19.8202H118.205V30H116.048V19.8202H112.339ZM122.732 30V20.9981H124.789V22.4984H124.883C125.047 21.9788 125.329 21.5783 125.727 21.297C126.129 21.0118 126.589 20.8692 127.104 20.8692C127.221 20.8692 127.352 20.8751 127.497 20.8868C127.645 20.8946 127.768 20.9083 127.866 20.9278V22.8794C127.776 22.8481 127.634 22.8208 127.438 22.7973C127.247 22.77 127.061 22.7563 126.882 22.7563C126.495 22.7563 126.147 22.8403 125.838 23.0083C125.534 23.1724 125.293 23.401 125.118 23.694C124.942 23.987 124.854 24.325 124.854 24.7079V30H122.732ZM135.013 26.2141V20.9981H137.135V30H135.078V28.4001H134.984C134.781 28.9041 134.447 29.3163 133.982 29.6366C133.521 29.957 132.952 30.1172 132.276 30.1172C131.686 30.1172 131.165 29.9863 130.711 29.7246C130.262 29.4589 129.911 29.074 129.657 28.57C129.403 28.0621 129.276 27.4487 129.276 26.7298V20.9981H131.397V26.4016C131.397 26.972 131.553 27.4252 131.866 27.7613C132.179 28.0973 132.589 28.2653 133.097 28.2653C133.409 28.2653 133.712 28.1891 134.005 28.0367C134.298 27.8843 134.538 27.6577 134.726 27.3569C134.917 27.0521 135.013 26.6712 135.013 26.2141ZM146.431 23.3775L144.497 23.5885C144.442 23.3932 144.347 23.2095 144.21 23.0376C144.077 22.8657 143.897 22.727 143.671 22.6215C143.444 22.516 143.167 22.4633 142.838 22.4633C142.397 22.4633 142.026 22.559 141.725 22.7504C141.428 22.9419 141.282 23.19 141.285 23.4947C141.282 23.7565 141.377 23.9695 141.573 24.1335C141.772 24.2976 142.1 24.4324 142.557 24.5379L144.093 24.8661C144.944 25.0498 145.577 25.3408 145.991 25.7394C146.41 26.1379 146.621 26.6595 146.624 27.3041C146.621 27.8707 146.454 28.3708 146.126 28.8044C145.802 29.2342 145.351 29.5702 144.772 29.8125C144.194 30.0547 143.53 30.1758 142.78 30.1758C141.678 30.1758 140.791 29.9453 140.119 29.4843C139.447 29.0193 139.047 28.3727 138.918 27.5444L140.987 27.3452C141.08 27.7515 141.28 28.0582 141.584 28.2653C141.889 28.4723 142.286 28.5759 142.774 28.5759C143.278 28.5759 143.682 28.4723 143.987 28.2653C144.296 28.0582 144.45 27.8023 144.45 27.4975C144.45 27.2397 144.351 27.0267 144.151 26.8587C143.956 26.6907 143.651 26.5618 143.237 26.4719L141.702 26.1496C140.838 25.9699 140.199 25.6671 139.785 25.2412C139.371 24.8114 139.166 24.2683 139.17 23.612C139.166 23.0572 139.316 22.5766 139.621 22.1703C139.93 21.76 140.357 21.4435 140.904 21.2208C141.455 20.9942 142.09 20.8809 142.809 20.8809C143.864 20.8809 144.694 21.1056 145.3 21.5549C145.909 22.0042 146.286 22.6117 146.431 23.3775ZM152.869 20.9981V22.6391H147.694V20.9981H152.869ZM148.972 18.8414H151.093V27.2924C151.093 27.5776 151.136 27.7964 151.222 27.9488C151.312 28.0973 151.429 28.1988 151.574 28.2535C151.718 28.3082 151.878 28.3356 152.054 28.3356C152.187 28.3356 152.308 28.3258 152.418 28.3063C152.531 28.2868 152.617 28.2692 152.675 28.2535L153.033 29.9121C152.92 29.9512 152.758 29.9941 152.547 30.041C152.339 30.0879 152.086 30.1153 151.785 30.1231C151.253 30.1387 150.775 30.0586 150.349 29.8828C149.923 29.7031 149.585 29.4257 149.335 29.0506C149.089 28.6755 148.968 28.2067 148.972 27.644V18.8414Z" fill="#7939CC"/>
</svg>
